Coordinates
version=1
nRows=59
nColumns=19
inDegrees=yes

Units are S.I. units (second, meters, Newtons, ...)
Angles are in degrees.

endheader
time	ground_force_vx	ground_force_vy	ground_force_vz	ground_force_px	ground_force_py	ground_force_pz	1_ground_force_vx	1_ground_force_vy	1_ground_force_vz	1_ground_force_px	1_ground_force_py	1_ground_force_pz	ground_torque_x	ground_torque_y	ground_torque_z	1_ground_torque_x	1_ground_torque_y	1_ground_torque_z
1.1150	20.289	-2.350	-3.226	-0.238	0.000	0.385	-3.601	2.923	-2.232	-0.217	0.000	0.251	0.00000	8.28620	0.00000	0.00000	9.30763	0.00000
1.1175	20.198	-1.481	-3.182	-0.217	0.000	0.378	-3.560	3.270	-1.793	-0.216	0.000	0.250	0.00000	12.76721	0.00000	0.00000	9.42378	0.00000
1.1200	20.026	-1.995	-3.003	-0.239	0.000	0.391	-3.643	2.407	-2.452	-0.214	0.000	0.252	0.00000	9.03991	0.00000	0.00000	9.92999	0.00000
1.1225	19.678	-2.158	-2.954	-0.257	0.000	0.420	-3.995	3.605	-2.498	-0.214	0.000	0.247	0.00000	6.23582	0.00000	0.00000	8.20092	0.00000
1.1250	19.896	-1.821	-3.224	-0.249	0.000	0.398	-3.905	3.264	-2.583	-0.214	0.000	0.250	0.00000	9.08628	0.00000	0.00000	8.59608	0.00000
1.1275	19.632	-1.292	-2.912	-0.244	0.000	0.402	-3.906	4.123	-2.494	-0.215	0.000	0.249	0.00000	11.79499	0.00000	0.00000	7.67234	0.00000
1.1300	20.156	-2.169	-3.090	-0.231	0.000	0.404	-3.471	2.582	-2.146	-0.214	0.000	0.251	0.00000	7.33364	0.00000	0.00000	9.62797	0.00000
1.1325	19.806	-2.689	-3.177	-0.244	0.000	0.403	-3.732	2.925	-2.233	-0.215	0.000	0.251	0.00000	6.08089	0.00000	0.00000	9.57124	0.00000
1.1350	19.805	-2.340	-3.265	-0.240	0.000	0.408	-3.601	2.582	-2.145	-0.215	0.000	0.252	0.00000	6.42797	0.00000	0.00000	10.21111	0.00000
1.1375	20.069	-2.170	-3.179	-0.239	0.000	0.396	-3.426	3.095	-2.319	-0.215	0.000	0.249	0.00000	7.99109	0.00000	0.00000	8.14867	0.00000
1.1400	19.632	-2.684	-3.088	-0.256	0.000	0.401	-3.603	2.581	-2.059	-0.213	0.000	0.251	0.00000	6.32064	0.00000	0.00000	10.18899	0.00000
1.1425	19.847	-1.652	-3.180	-0.221	0.000	0.382	-3.821	2.239	-2.105	-0.213	0.000	0.251	0.00000	11.06812	0.00000	0.00000	11.88699	0.00000
1.1450	19.497	-1.291	-3.132	-0.243	0.000	0.398	-3.688	2.749	-2.452	-0.213	0.000	0.252	0.00000	12.08847	0.00000	0.00000	9.18941	0.00000
1.1475	19.280	-1.459	-2.909	-0.248	0.000	0.413	-3.645	3.092	-2.451	-0.214	0.000	0.251	0.00000	9.24184	0.00000	0.00000	8.45438	0.00000
1.1500	19.324	-1.983	-3.218	-0.259	0.000	0.413	-3.731	3.265	-2.539	-0.214	0.000	0.250	0.00000	7.01129	0.00000	0.00000	8.20183	0.00000
1.1525	19.763	-0.947	-2.914	-0.237	0.000	0.396	-3.995	3.264	-2.409	-0.213	0.000	0.251	0.00000	16.63560	0.00000	0.00000	9.09121	0.00000
1.1550	19.545	-1.462	-2.866	-0.247	0.000	0.413	-3.906	3.437	-2.452	-0.214	0.000	0.250	0.00000	9.34696	0.00000	0.00000	8.53650	0.00000
1.1575	19.500	-2.161	-2.911	-0.248	0.000	0.399	-3.513	2.235	-2.364	-0.214	0.000	0.253	0.00000	7.63258	0.00000	0.00000	10.25658	0.00000
1.1600	19.628	-1.816	-2.867	-0.225	0.000	0.402	-3.209	2.065	-2.145	-0.214	0.000	0.252	0.00000	8.44932	0.00000	0.00000	10.12618	0.00000
1.1625	19.544	-2.849	-2.686	-0.247	0.000	0.424	-3.734	2.925	-1.971	-0.215	0.000	0.251	0.00000	4.57358	0.00000	0.00000	10.13442	0.00000
1.1650	19.371	-2.674	-2.553	-0.250	0.000	0.430	-3.992	3.776	-2.713	-0.216	0.000	0.250	0.00000	4.39316	0.00000	0.00000	7.92035	0.00000
1.1675	19.148	-1.110	-2.732	-0.243	0.000	0.409	-4.081	3.607	-2.495	-0.214	0.000	0.251	0.00000	12.38271	0.00000	0.00000	8.72804	0.00000
1.1700	19.149	-1.976	-2.729	-0.248	0.000	0.426	-3.948	2.575	-2.760	-0.213	0.000	0.252	0.00000	5.95895	0.00000	0.00000	9.63429	0.00000
1.1725	18.974	-1.977	-2.951	-0.261	0.000	0.420	-3.906	3.435	-2.539	-0.214	0.000	0.250	0.00000	6.44276	0.00000	0.00000	8.39995	0.00000
1.1750	18.797	-1.449	-2.375	-0.246	0.000	0.416	-3.992	3.780	-2.670	-0.214	0.000	0.250	0.00000	8.97693	0.00000	0.00000	7.99031	0.00000
1.1775	19.195	-2.846	-2.508	-0.256	0.000	0.418	-3.689	2.754	-2.147	-0.215	0.000	0.249	0.00000	4.95367	0.00000	0.00000	9.86983	0.00000
1.1800	18.927	-2.677	-2.642	-0.242	0.000	0.401	-3.472	2.410	-2.057	-0.214	0.000	0.252	0.00000	6.07051	0.00000	0.00000	10.41652	0.00000
1.1825	18.789	-0.413	-2.598	-0.218	0.000	0.372	-3.558	2.754	-2.102	-0.214	0.000	0.250	0.00000	42.02645	0.00000	0.00000	9.56681	0.00000
1.1850	18.753	-1.452	-2.111	-0.236	0.000	0.401	-3.426	2.752	-2.276	-0.215	0.000	0.250	0.00000	10.49504	0.00000	0.00000	8.87658	0.00000
1.1875	18.667	-1.968	-2.285	-0.257	0.000	0.410	-3.602	3.095	-2.321	-0.213	0.000	0.249	0.00000	7.34388	0.00000	0.00000	8.50491	0.00000
1.1900	18.443	-2.663	-2.416	-0.254	0.000	0.397	-3.780	2.582	-1.798	-0.213	0.000	0.251	0.00000	6.41615	0.00000	0.00000	11.43750	0.00000
1.1925	18.356	-1.619	-2.328	-0.251	0.000	0.397	-3.994	3.608	-2.408	-0.216	0.000	0.250	0.00000	9.75518	0.00000	0.00000	8.66520	0.00000
1.1950	18.396	-1.800	-2.374	-0.231	0.000	0.389	-3.779	2.237	-1.974	-0.214	0.000	0.251	0.00000	9.34421	0.00000	0.00000	12.05492	0.00000
1.1975	17.868	-2.484	-2.456	-0.242	0.000	0.406	-3.777	2.581	-2.059	-0.214	0.000	0.251	0.00000	5.80943	0.00000	0.00000	10.87297	0.00000
1.2000	17.829	-1.089	-2.325	-0.264	0.000	0.403	-3.689	2.747	-2.454	-0.213	0.000	0.250	0.00000	13.03927	0.00000	0.00000	8.95001	0.00000
1.2025	17.301	-1.953	-2.322	-0.270	0.000	0.405	-3.820	3.434	-2.453	-0.215	0.000	0.248	0.00000	7.28556	0.00000	0.00000	8.20194	0.00000
1.2050	17.298	-2.306	-2.321	-0.241	0.000	0.412	-3.472	2.580	-2.101	-0.213	0.000	0.252	0.00000	5.53009	0.00000	0.00000	9.76441	0.00000
1.2075	17.386	-3.519	-2.230	-0.250	0.000	0.416	-3.516	2.063	-2.148	-0.214	0.000	0.251	0.00000	3.85182	0.00000	0.00000	11.19979	0.00000
1.2100	17.078	-2.648	-2.231	-0.257	0.000	0.400	-3.820	3.096	-2.145	-0.215	0.000	0.251	0.00000	5.73450	0.00000	0.00000	9.65138	0.00000
1.2125	16.946	-2.645	-2.274	-0.257	0.000	0.407	-3.733	3.096	-2.145	-0.215	0.000	0.250	0.00000	5.28280	0.00000	0.00000	9.41595	0.00000
1.2150	16.772	-2.298	-2.098	-0.259	0.000	0.398	-3.604	1.892	-2.060	-0.212	0.000	0.253	0.00000	6.47458	0.00000	0.00000	12.61834	0.00000
1.2175	16.725	-2.645	-2.273	-0.253	0.000	0.405	-3.516	2.235	-2.147	-0.214	0.000	0.251	0.00000	5.29012	0.00000	0.00000	10.61542	0.00000
1.2200	16.330	-1.768	-2.139	-0.263	0.000	0.398	-3.863	3.606	-2.583	-0.214	0.000	0.250	0.00000	8.00026	0.00000	0.00000	7.94868	0.00000
1.2225	16.070	-2.277	-1.780	-0.273	0.000	0.425	-3.644	2.230	-2.628	-0.213	0.000	0.253	0.00000	4.82979	0.00000	0.00000	9.74021	0.00000
1.2250	15.718	-1.755	-1.781	-0.283	0.000	0.400	-3.691	3.950	-2.275	-0.214	0.000	0.250	0.00000	7.88123	0.00000	0.00000	7.68812	0.00000
1.2275	15.278	-2.615	-1.819	-0.281	0.000	0.431	-3.951	4.123	-2.364	-0.215	0.000	0.248	0.00000	3.72617	0.00000	0.00000	7.89199	0.00000
1.2300	15.189	-2.274	-2.087	-0.279	0.000	0.421	-3.863	3.779	-2.496	-0.214	0.000	0.248	0.00000	4.64822	0.00000	0.00000	7.83264	0.00000
1.2325	15.056	-2.797	-1.733	-0.264	0.000	0.407	-3.734	2.751	-2.060	-0.215	0.000	0.250	0.00000	4.49094	0.00000	0.00000	10.19175	0.00000
1.2350	14.967	-3.660	-1.861	-0.271	0.000	0.419	-3.648	1.890	-2.149	-0.213	0.000	0.252	0.00000	3.13814	0.00000	0.00000	12.46553	0.00000
1.2375	14.575	-3.308	-1.861	-0.288	0.000	0.420	-3.561	2.922	-1.971	-0.215	0.000	0.250	0.00000	3.30313	0.00000	0.00000	9.46982	0.00000
1.2400	14.313	-3.129	-1.726	-0.290	0.000	0.432	-3.820	2.744	-2.629	-0.212	0.000	0.252	0.00000	2.85450	0.00000	0.00000	8.96536	0.00000
1.2425	14.002	-2.604	-1.858	-0.293	0.000	0.424	-3.776	3.261	-2.585	-0.213	0.000	0.249	0.00000	3.73182	0.00000	0.00000	7.99673	0.00000
1.2450	13.607	-2.431	-1.637	-0.290	0.000	0.410	-3.910	3.261	-2.322	-0.213	0.000	0.250	0.00000	4.45323	0.00000	0.00000	8.87699	0.00000
1.2475	13.390	-2.773	-1.678	-0.295	0.000	0.438	-3.734	3.605	-2.364	-0.215	0.000	0.249	0.00000	2.60573	0.00000	0.00000	8.00144	0.00000
1.2500	12.987	-2.768	-1.939	-0.285	0.000	0.430	-4.039	3.090	-2.411	-0.214	0.000	0.250	0.00000	2.87466	0.00000	0.00000	9.41713	0.00000
1.2525	13.342	-3.818	-1.898	-0.299	0.000	0.412	-3.386	2.750	-2.059	-0.214	0.000	0.249	0.00000	2.91407	0.00000	0.00000	8.91599	0.00000
1.2550	12.943	-3.642	-1.985	-0.288	0.000	0.410	-3.516	2.232	-2.189	-0.215	0.000	0.253	0.00000	2.93462	0.00000	0.00000	10.69675	0.00000
1.2575	12.373	-4.332	-1.892	-0.287	0.000	0.426	-3.692	2.405	-2.060	-0.215	0.000	0.251	0.00000	1.82302	0.00000	0.00000	11.02880	0.00000
1.2600	12.463	-3.114	-1.894	-0.300	0.000	0.422	-3.821	2.398	-2.630	-0.213	0.000	0.252	0.00000	2.73221	0.00000	0.00000	9.74653	0.00000
